<svg xmlns:dc="http://purl.org/dc/elements/1.1/" xmlns:cc="http://creativecommons.org/ns#" xmlns:rdf="http://www.w3.org/1999/02/22-rdf-syntax-ns#" xmlns:svg="http://www.w3.org/2000/svg" xmlns="http://www.w3.org/2000/svg" xmlns:sodipodi="http://sodipodi.sourceforge.net/DTD/sodipodi-0.dtd" xmlns:inkscape="http://www.inkscape.org/namespaces/inkscape" version="1.1" x="0px" y="0px" viewBox="0 0 100 125"><g transform="translate(0,-952.36218)"><path style="text-indent:0;text-transform:none;direction:ltr;block-progression:tb;baseline-shift:baseline;color:#000000;enable-background:accumulate;" d="M 49.78125 7 A 1.0001 1.0001 0 0 0 49.28125 7.28125 L 43.28125 13.28125 A 1.0054782 1.0054782 0 1 0 44.71875 14.6875 L 49 10.40625 L 49 13 A 1.0001 1.0001 0 1 0 51 13 L 51 10.40625 L 55.28125 14.6875 A 1.0054782 1.0054782 0 1 0 56.71875 13.28125 L 50.71875 7.28125 A 1.0001 1.0001 0 0 0 49.78125 7 z M 50 16.5 C 48.895432 16.5 48 17.395432 48 18.5 C 48 19.604568 48.895432 20.5 50 20.5 C 51.104568 20.5 52 19.604568 52 18.5 C 52 17.395432 51.104568 16.5 50 16.5 z M 43.875 21.96875 A 1.0001 1.0001 0 0 0 43.28125 23.6875 L 49.28125 29.6875 A 1.0001 1.0001 0 0 0 50.71875 29.6875 L 56.71875 23.6875 A 1.0054782 1.0054782 0 1 0 55.28125 22.28125 L 51 26.5625 L 51 24 A 1.0001 1.0001 0 0 0 49.875 22.96875 A 1.0001 1.0001 0 0 0 49 24 L 49 26.5625 L 44.71875 22.28125 A 1.0001 1.0001 0 0 0 43.875 21.96875 z M 50 33 C 39.491297 33 31 41.4913 31 52 L 31 74 C 31 84.5087 39.491297 93 50 93 C 60.508703 93 69 84.5087 69 74 L 69 52 C 69 41.4913 60.508703 33 50 33 z M 50 35 C 59.435297 35 67 42.5647 67 52 L 67 74 C 67 83.4353 59.435297 91 50 91 C 40.564703 91 33 83.4353 33 74 L 33 52 C 33 42.5647 40.564703 35 50 35 z M 50 41 C 47.801297 41 46 42.8013 46 45 L 46 53 C 46 55.1987 47.801297 57 50 57 C 52.198703 57 54 55.1987 54 53 L 54 45 C 54 42.8013 52.198703 41 50 41 z M 50 43 C 51.125297 43 52 43.8747 52 45 L 52 53 C 52 54.1253 51.125297 55 50 55 C 48.874703 55 48 54.1253 48 53 L 48 45 C 48 43.8747 48.874703 43 50 43 z " transform="translate(0,952.36218)" fill="#000000" fill-opacity="1" stroke="none" marker="none" visibility="visible" display="inline" overflow="visible"/></g><text x="0" y="115" fill="#000000" font-size="5px" font-weight="bold" font-family="'Helvetica Neue', Helvetica, Arial-Unicode, Arial, Sans-serif">Created by iconsphere</text><text x="0" y="120" fill="#000000" font-size="5px" font-weight="bold" font-family="'Helvetica Neue', Helvetica, Arial-Unicode, Arial, Sans-serif">from the Noun Project</text></svg>